<svg id="splitsvg" version="1.1" xmlns="http://www.w3.org/2000/svg" xmlns:xlink="http://www.w3.org/1999/xlink" width="1380" height="860"><g id="svgg"><path id="path0" d="M230.556 116.205 C 227.907 120.622,225.682 124.476,225.610 124.770 C 225.538 125.063,223.052 129.318,220.086 134.226 C 204.798 159.524,198.889 169.392,198.889 169.624 C 198.889 170.226,207.044 171.560,209.891 171.423 C 215.053 171.176,215.448 170.840,220.636 162.306 C 223.079 158.288,229.435 147.834,234.761 139.076 C 245.683 121.114,245.353 121.934,243.669 116.935 C 242.559 113.638,237.386 108.037,235.566 108.161 C 235.458 108.169,233.204 111.789,230.556 116.205  M -25 0 L -5 0 L -5 20 L -25 20 Z M 405 0 L 425 0 L 425 20 L 405 20 Z" stroke="none" fill="#04baaa" fill-rule="evenodd" transform="translate(30,0)"></path><path id="path1" d="M139.164 26.944 C 138.845 27.301,136.900 30.426,134.843 33.889 L 131.102 40.185 131.199 52.222 L 131.296 64.259 139.954 64.359 C 146.029 64.429,148.763 64.332,149.120 64.036 C 149.532 63.694,149.630 61.434,149.630 52.210 L 149.630 40.807 148.204 38.274 C 147.420 36.881,145.979 34.241,145.001 32.407 C 141.609 26.045,140.717 25.210,139.164 26.944 M169.164 26.944 C 168.845 27.301,166.900 30.426,164.843 33.889 L 161.102 40.185 161.199 52.222 L 161.296 64.259 169.954 64.359 C 176.029 64.429,178.763 64.332,179.120 64.036 C 179.532 63.694,179.630 61.434,179.630 52.210 L 179.630 40.807 178.204 38.274 C 177.420 36.881,175.979 34.241,175.001 32.407 C 171.609 26.045,170.717 25.210,169.164 26.944 M198.077 26.944 C 197.172 28.000,194.815 31.715,194.815 32.086 C 194.815 32.275,193.773 34.007,192.500 35.937 L 190.185 39.444 190.185 51.852 L 190.185 64.259 198.843 64.359 C 204.918 64.429,207.652 64.332,208.009 64.036 C 208.421 63.694,208.518 61.415,208.518 52.084 L 208.517 40.556 207.174 38.333 C 206.435 37.111,205.049 34.611,204.093 32.778 C 200.668 26.212,199.597 25.173,198.077 26.944 M230.300 26.944 C 229.394 28.000,227.037 31.715,227.037 32.086 C 227.037 32.275,225.995 34.007,224.722 35.937 L 222.407 39.444 222.407 51.852 L 222.407 64.259 231.065 64.359 C 237.140 64.429,239.874 64.332,240.231 64.036 C 240.644 63.694,240.741 61.415,240.740 52.084 L 240.739 40.556 239.396 38.333 C 238.658 37.111,237.271 34.611,236.315 32.778 C 232.891 26.212,231.819 25.173,230.300 26.944 M258.818 26.944 C 257.913 28.000,255.556 31.715,255.556 32.086 C 255.556 32.275,254.514 34.007,253.241 35.937 L 250.926 39.444 250.926 51.852 L 250.926 64.259 259.583 64.359 C 265.658 64.429,268.393 64.332,268.750 64.036 C 269.162 63.694,269.259 61.415,269.258 52.084 L 269.257 40.556 267.915 38.333 C 267.176 37.111,265.790 34.611,264.833 32.778 C 261.409 26.212,260.338 25.173,258.818 26.944 M111.579 70.941 C 105.337 72.622,100.239 77.681,98.369 84.049 C 97.518 86.943,97.467 252.320,98.316 255.507 C 100.029 261.943,105.573 267.411,111.852 268.857 C 115.492 269.696,283.623 269.375,286.377 268.524 C 292.964 266.489,298.167 260.496,299.243 253.704 C 299.765 250.404,299.771 89.277,299.249 85.926 C 298.137 78.796,292.589 72.822,285.322 70.929 C 282.196 70.115,114.604 70.127,111.579 70.941 M64.815 101.118 C 63.898 101.735,60.950 103.516,58.264 105.077 C 50.805 109.410,50.896 109.684,61.667 115.341 C 63.093 116.090,64.926 117.108,65.741 117.604 L 67.222 118.506 78.751 118.512 C 88.087 118.517,90.360 118.422,90.702 118.009 C 90.999 117.652,91.095 114.918,91.025 108.843 L 90.926 100.185 78.704 100.091 L 66.481 99.997 64.815 101.118 M306.173 100.247 C 305.702 100.718,305.889 117.593,306.370 118.074 C 306.697 118.401,309.848 118.519,318.242 118.519 L 329.669 118.519 333.197 116.481 C 335.138 115.361,336.837 114.442,336.974 114.438 C 337.110 114.435,338.722 113.548,340.556 112.469 C 345.462 109.580,345.400 109.085,339.700 105.703 C 337.726 104.532,334.814 102.770,333.228 101.787 L 330.346 100.000 318.383 100.000 C 311.803 100.000,306.309 100.111,306.173 100.247 M238.729 109.991 C 242.588 112.805,244.815 116.802,244.815 120.913 C 244.815 123.110,246.166 120.737,226.048 153.889 C 215.322 171.564,216.369 170.070,214.061 171.007 C 210.694 172.375,198.211 171.232,198.636 169.595 C 198.803 168.953,206.719 155.757,223.946 127.407 C 224.626 126.287,225.184 125.245,225.184 125.093 C 225.185 124.940,213.310 124.820,198.796 124.827 L 172.407 124.839 159.259 147.669 C 152.028 160.225,146.111 170.859,146.111 171.300 C 146.111 171.741,152.028 182.375,159.259 194.931 L 172.407 217.760 199.444 217.753 L 226.481 217.746 239.793 194.614 L 253.105 171.481 262.510 171.481 C 268.358 171.481,271.867 171.616,271.790 171.837 C 271.722 172.033,263.583 186.198,253.704 203.316 L 235.741 234.439 199.436 234.442 L 163.131 234.444 145.022 203.075 C 135.062 185.821,126.914 171.527,126.914 171.310 C 126.914 171.093,135.064 156.792,145.025 139.532 L 163.137 108.148 199.669 108.148 L 236.200 108.148 238.729 109.991 M63.704 131.812 C 62.176 132.781,59.311 134.532,57.337 135.703 C 51.638 139.086,51.575 139.580,56.481 142.469 C 58.315 143.548,59.927 144.435,60.063 144.438 C 60.200 144.442,61.899 145.361,63.840 146.481 L 67.368 148.519 78.824 148.519 C 88.092 148.519,90.360 148.421,90.702 148.009 C 90.999 147.652,91.095 144.918,91.025 138.843 L 90.926 130.185 78.704 130.118 L 66.481 130.051 63.704 131.812 M306.173 130.247 C 305.702 130.718,305.889 147.593,306.370 148.074 C 306.697 148.401,309.862 148.518,318.315 148.517 L 329.815 148.515 332.778 146.821 C 334.407 145.889,337.574 144.098,339.815 142.841 C 345.555 139.621,345.602 139.072,340.398 136.049 C 338.353 134.861,335.301 133.015,333.617 131.947 L 330.556 130.005 318.488 130.003 C 311.850 130.001,306.309 130.111,306.173 130.247 M64.815 160.007 C 63.898 160.623,60.950 162.405,58.264 163.965 C 50.805 168.299,50.896 168.573,61.667 174.230 C 63.093 174.979,64.926 175.997,65.741 176.493 L 67.222 177.395 78.751 177.401 C 88.087 177.406,90.360 177.311,90.702 176.898 C 90.999 176.541,91.095 173.807,91.025 167.731 L 90.926 159.074 78.704 158.980 L 66.481 158.886 64.815 160.007 M306.173 159.136 C 305.702 159.607,305.889 176.482,306.370 176.963 C 306.697 177.290,309.862 177.407,318.315 177.406 L 329.815 177.404 332.778 175.710 C 334.407 174.778,337.574 172.987,339.815 171.730 C 345.555 168.510,345.602 167.960,340.398 164.938 C 338.353 163.750,335.301 161.904,333.617 160.836 L 330.556 158.894 318.488 158.892 C 311.850 158.890,306.309 159.000,306.173 159.136 M63.704 192.923 C 62.176 193.892,59.311 195.643,57.337 196.814 C 51.638 200.197,51.575 200.691,56.481 203.580 C 58.315 204.659,59.927 205.546,60.063 205.549 C 60.200 205.553,61.899 206.472,63.840 207.593 L 67.368 209.630 78.824 209.630 C 88.092 209.630,90.360 209.532,90.702 209.120 C 90.999 208.763,91.095 206.029,91.025 199.954 L 90.926 191.296 78.704 191.229 L 66.481 191.162 63.704 192.923 M306.173 191.358 C 305.702 191.829,305.889 208.704,306.370 209.185 C 306.697 209.512,309.848 209.630,318.242 209.630 L 329.669 209.630 333.197 207.593 C 335.138 206.472,336.837 205.553,336.974 205.549 C 337.110 205.546,338.722 204.659,340.556 203.580 C 345.462 200.691,345.400 200.196,339.700 196.814 C 337.726 195.643,334.814 193.881,333.228 192.898 L 330.346 191.111 318.383 191.111 C 311.803 191.111,306.309 191.222,306.173 191.358 M63.704 221.812 C 62.176 222.781,59.311 224.532,57.337 225.703 C 51.638 229.086,51.575 229.580,56.481 232.469 C 58.315 233.548,59.927 234.435,60.063 234.438 C 60.200 234.442,61.899 235.361,63.840 236.481 L 67.368 238.519 78.824 238.519 C 88.092 238.519,90.360 238.421,90.702 238.009 C 90.999 237.652,91.095 234.918,91.025 228.843 L 90.926 220.185 78.704 220.118 L 66.481 220.051 63.704 221.812 M306.173 220.247 C 305.702 220.718,305.889 237.593,306.370 238.074 C 306.697 238.401,309.848 238.519,318.242 238.519 L 329.669 238.519 333.197 236.481 C 335.138 235.361,336.837 234.442,336.974 234.438 C 337.110 234.435,338.722 233.548,340.556 232.469 C 345.462 229.580,345.400 229.085,339.700 225.703 C 337.726 224.532,334.814 222.770,333.228 221.787 L 330.346 220.000 318.383 220.000 C 311.803 220.000,306.309 220.111,306.173 220.247 M130.529 276.417 C 130.426 276.687,130.389 282.312,130.448 288.917 L 130.556 300.926 132.870 304.434 C 134.144 306.363,135.187 308.113,135.188 308.323 C 135.190 308.532,135.984 309.870,136.952 311.296 C 139.876 315.603,140.427 315.332,144.463 307.593 C 145.419 305.759,146.806 303.259,147.544 302.037 L 148.887 299.815 148.888 288.315 C 148.889 279.863,148.771 276.697,148.444 276.370 C 147.771 275.696,130.789 275.740,130.529 276.417 M160.529 276.417 C 160.426 276.687,160.389 282.312,160.448 288.917 L 160.556 300.926 162.870 304.434 C 164.144 306.363,165.187 308.113,165.188 308.323 C 165.190 308.532,165.984 309.870,166.952 311.296 C 169.876 315.603,170.427 315.332,174.463 307.593 C 175.419 305.759,176.806 303.259,177.544 302.037 L 178.887 299.815 178.888 288.315 C 178.889 279.863,178.771 276.697,178.444 276.370 C 177.771 275.696,160.789 275.740,160.529 276.417 M189.506 276.173 C 189.370 276.309,189.259 281.770,189.259 288.310 L 189.259 300.199 192.995 306.489 C 198.906 316.437,198.652 316.400,203.150 307.963 C 204.127 306.130,205.568 303.490,206.352 302.096 L 207.778 299.563 207.778 288.189 C 207.778 279.836,207.660 276.697,207.333 276.370 C 206.852 275.889,189.977 275.702,189.506 276.173 M221.640 276.417 C 221.537 276.687,221.500 282.312,221.559 288.917 L 221.667 300.926 223.981 304.434 C 225.255 306.363,226.298 308.113,226.300 308.323 C 226.301 308.532,227.095 309.870,228.063 311.296 C 230.987 315.603,231.538 315.332,235.574 307.593 C 236.530 305.759,237.917 303.259,238.655 302.037 L 239.998 299.815 239.999 288.315 C 240.000 279.863,239.882 276.697,239.556 276.370 C 238.882 275.696,221.900 275.740,221.640 276.417 M250.529 276.417 C 250.426 276.687,250.389 282.312,250.448 288.917 L 250.556 300.926 252.870 304.434 C 254.144 306.363,255.187 308.113,255.188 308.323 C 255.190 308.532,255.984 309.870,256.952 311.296 C 259.876 315.603,260.427 315.332,264.463 307.593 C 265.419 305.759,266.806 303.259,267.544 302.037 L 268.887 299.815 268.888 288.315 C 268.889 279.863,268.771 276.697,268.444 276.370 C 267.771 275.696,250.789 275.740,250.529 276.417 M207.193 325.513 C 204.937 326.889,204.767 327.820,204.797 338.622 C 204.836 352.205,204.238 351.603,217.870 351.797 L 227.037 351.927 227.037 353.875 C 227.037 354.946,226.931 356.596,226.802 357.541 L 226.566 359.259 217.261 359.259 L 207.955 359.259 206.379 363.796 C 205.512 366.292,204.806 368.470,204.809 368.636 C 204.812 368.803,211.773 368.887,220.278 368.822 C 241.180 368.662,239.626 369.711,239.628 355.765 C 239.630 341.679,240.019 342.091,226.574 341.921 L 217.407 341.805 217.407 338.125 L 217.407 334.444 226.852 334.444 C 232.046 334.444,236.296 334.393,236.296 334.330 C 236.296 334.267,237.046 332.152,237.963 329.630 C 238.880 327.108,239.630 324.992,239.630 324.929 C 239.630 324.329,208.208 324.894,207.193 325.513 M264.313 325.097 C 264.069 325.493,248.519 368.394,248.519 368.673 C 248.519 368.792,251.249 368.889,254.587 368.889 L 260.655 368.889 261.572 366.389 C 262.077 365.014,264.388 358.597,266.708 352.129 L 270.926 340.370 273.973 349.722 C 275.649 354.866,277.024 359.116,277.029 359.167 C 277.033 359.218,274.870 359.259,272.222 359.259 L 267.407 359.259 267.407 364.074 L 267.407 368.889 280.025 368.889 C 291.878 368.889,292.629 368.850,292.424 368.241 C 292.303 367.884,288.917 358.009,284.899 346.296 L 277.593 325.000 271.046 324.899 C 267.445 324.843,264.415 324.933,264.313 325.097 M116.296 347.041 L 116.296 368.897 132.088 368.800 L 147.880 368.704 149.490 364.259 C 150.375 361.815,151.102 359.606,151.105 359.352 C 151.110 358.991,148.608 358.889,139.815 358.889 L 128.519 358.889 128.519 355.370 L 128.519 351.852 138.148 351.852 L 147.778 351.852 147.778 347.037 L 147.778 342.222 138.148 342.222 L 128.519 342.222 128.519 338.519 L 128.519 334.815 138.116 334.815 L 147.713 334.815 148.653 332.315 C 150.730 326.789,151.111 325.729,151.111 325.463 C 151.111 325.310,143.278 325.185,133.704 325.185 L 116.296 325.185 116.296 347.041 M162.545 325.809 C 160.326 327.186,160.370 326.763,160.370 346.464 C 160.370 366.236,160.278 365.386,162.676 367.690 L 163.933 368.898 177.944 368.801 L 191.955 368.704 193.564 364.259 C 194.449 361.815,195.176 359.606,195.179 359.352 C 195.184 358.991,192.682 358.889,183.889 358.889 L 172.593 358.889 172.593 346.852 L 172.593 334.815 182.190 334.815 L 191.787 334.815 192.727 332.315 C 194.804 326.789,195.185 325.729,195.185 325.463 C 195.185 324.830,163.584 325.164,162.545 325.809  M -25 0 L -5 0 L -5 20 L -25 20 Z M 405 0 L 425 0 L 425 20 L 405 20 Z" stroke="none" fill="#040404" fill-rule="evenodd" transform="translate(490,0)"></path><path id="path2" d=" M -25 0 L -5 0 L -5 20 L -25 20 Z M 405 0 L 425 0 L 425 20 L 405 20 Z" stroke="none" fill="#044f49" fill-rule="evenodd" transform="translate(950,0)"></path><path id="path3" d="M208.611 171.747 C 209.171 171.832,210.088 171.832,210.648 171.747 C 211.208 171.662,210.750 171.592,209.630 171.592 C 208.509 171.592,208.051 171.662,208.611 171.747  M -25 0 L -5 0 L -5 20 L -25 20 Z M 405 0 L 425 0 L 425 20 L 405 20 Z" stroke="none" fill="#04645c" fill-rule="evenodd" transform="translate(30,460)"></path><path id="path4" d=" M -25 0 L -5 0 L -5 20 L -25 20 Z M 405 0 L 425 0 L 425 20 L 405 20 Z" stroke="none" fill="#042926" fill-rule="evenodd" transform="translate(490,460)"></path></g></svg>